<svg width="150" height="150" viewBox="0 0 150 150" fill="none" xmlns="http://www.w3.org/2000/svg">
<path d="M54.5 116.5L54.4375 58.25C54.4375 47.7917 57.6042 39.5833 63.9375 33.625C70.2292 27.7083 78.8542 24.75 89.8125 24.75C100.771 24.75 109.292 27.75 115.375 33.75C121.375 39.75 124.375 48 124.375 58.5C124.375 58.5 124.375 110.75 124.375 117.375C124.375 124 113.75 124 113.75 117.375C113.75 110.75 113.75 57.75 113.75 57.75C113.75 50.0833 111.667 44.2083 107.5 40.125C103.292 36.0833 97.25 34.0625 89.375 34.0625C81.5 34.0625 75.4792 36.125 71.3125 40.25C67.1458 44.375 65.0625 50.25 65.0625 57.875L65.5 116.6C61.628 117.123 59.4927 117.079 54.5 116.5Z" fill="url(#paint0_linear_5_23)"/>
<path d="M95.5 34.5L95.5625 92.75C95.5625 103.208 92.3958 111.417 86.0625 117.375C79.7708 123.292 71.1458 126.25 60.1875 126.25C49.2292 126.25 40.7083 123.25 34.625 117.25C28.625 111.25 25.625 103 25.625 92.5C25.625 92.5 25.625 39.25 25.625 33.625C25.625 28 36.25 28 36.25 33.625C36.25 39.25 36.25 93.25 36.25 93.25C36.25 100.917 38.3333 106.792 42.5 110.875C46.7083 114.917 52.75 116.938 60.625 116.938C68.5 116.938 74.5208 114.875 78.6875 110.75C82.8542 106.625 84.9375 100.75 84.9375 93.125V34.2838C89.0817 33.9425 91.3945 34.0137 95.5 34.5Z" fill="url(#paint1_linear_5_23)"/>
<defs>
<linearGradient id="paint0_linear_5_23" x1="54.4375" y1="73.5469" x2="124.375" y2="73.5469" gradientUnits="userSpaceOnUse">
<stop stop-color="#00D1E9" stop-opacity="0.5"/>
<stop offset="1" stop-color="#FB0102" stop-opacity="0.5"/>
</linearGradient>
<linearGradient id="paint1_linear_5_23" x1="25.625" y1="77.8281" x2="95.5625" y2="77.8281" gradientUnits="userSpaceOnUse">
<stop stop-color="#00D1E9" stop-opacity="0.5"/>
<stop offset="1" stop-color="#FB0102" stop-opacity="0.5"/>
</linearGradient>
</defs>
</svg>
